<svg width="105" height="28" viewBox="0 0 105 28" fill="none" xmlns="http://www.w3.org/2000/svg">
<path d="M3 16C3.98424 15.2641 17.9667 3.60736 22.5556 3.44444C27.3779 3.27324 20.7005 18.8214 20.3889 20C17.9544 29.2088 34.7035 15.7587 37 14.3333C46.0992 8.68554 44.1007 14.1632 44.3333 21.7222C44.4108 24.2388 44.2583 25.7025 47.1111 24C52.9609 20.509 57.2837 14.6359 63.4444 11.5556C72.6283 6.96363 68.7414 27.0649 72.7778 25.2222C75.2181 24.1081 89.2606 2.77989 90.7778 6.33333C91.3866 7.75916 91.3741 14.304 91.3333 15.4444C91.3 16.3766 89.8064 22.5437 90.2778 23.7222C90.718 24.8228 91.45 21.6611 92 20.6111C95.1389 14.6187 98.6629 8.87967 102 3" stroke="#DA3A34" stroke-width="5" stroke-linecap="round" stroke-linejoin="round"/>
</svg>
